# xmcd
#
# Track frame offsets:
#	150
#	17337
#	36257
#	52820
#	70090
#	82795
#	100302
#	108917
#	125310
#	139805
#	157470
#	171227
#	184100
#	199880
#
# Disc length: 2836 seconds
#
# Revision: 2
# Processed by: cddbd v1.5.1PL0 Copyright (c) Steve Scherf et al.
# Submitted via: EasyCDDAExtractor 6.0.0.1
#
DISCID=b70b120e
DTITLE=Early Bird
DYEAR=1991
DGENRE=Country
TTITLE0=The Sound Of Country Music
TTITLE1=When You Are Gone
TTITLE2=Blue Ridge Mountain Boy
TTITLE3=Rolling In The End Of The Line
TTITLE4=I'm Living For You
TTITLE5=I Can Only Hope That You Forgive
TTITLE6=Touch Down (Instrumental)
TTITLE7=It's Only Temporary
TTITLE8=Nashville Tennessee
TTITLE9=It's Alright
TTITLE10=Sweet Angeline
TTITLE11=Goodbye Ginny Goodbye
TTITLE12=Till My Last Teardrops Fall
TTITLE13=Happy-Go-Lucky Guitar (Instrumental)
EXTD=
EXTT0=
EXTT1=
EXTT2=
EXTT3=
EXTT4=
EXTT5=
EXTT6=
EXTT7=
EXTT8=
EXTT9=
EXTT10=
EXTT11=
EXTT12=
EXTT13=
PLAYORDER=
